<?xml version="1.0" standalone="no"?>
<!DOCTYPE svg PUBLIC "-//W3C//DTD SVG 20010904//EN"
 "http://www.w3.org/TR/2001/REC-SVG-20010904/DTD/svg10.dtd">
<svg version="1.0" xmlns="http://www.w3.org/2000/svg"
 width="423.000000pt" height="285.000000pt" viewBox="0 0 423.000000 285.000000"
 preserveAspectRatio="xMidYMid meet">

<g transform="translate(0.000000,285.000000) scale(0.100000,-0.100000)"
fill="#2cb1bc" stroke="f2f2f2">
<path d="M1282 2788 c-7 -7 -12 -29 -12 -50 0 -44 -3 -45 -32 -18 -24 22 -38
26 -38 9 0 -7 -8 -18 -17 -25 -17 -11 -16 -13 10 -23 15 -6 27 -17 27 -26 0
-8 4 -15 9 -15 5 0 11 -11 13 -23 4 -22 2 -23 -32 -17 -20 4 -41 10 -47 13 -6
4 -36 -18 -67 -48 -30 -30 -60 -55 -65 -55 -18 0 -71 -35 -71 -47 0 -7 -4 -13
-10 -13 -20 0 -10 -39 12 -46 12 -3 28 -13 36 -20 7 -8 20 -14 27 -14 8 0 16
-8 20 -19 8 -27 -13 -233 -25 -241 -5 -3 -13 -89 -16 -195 -4 -105 -11 -201
-16 -213 -7 -21 -14 -23 -50 -20 -38 3 -42 1 -51 -25 -10 -30 -1 -50 12 -28 5
8 17 11 29 7 11 -4 23 -2 27 4 25 40 34 -70 13 -159 -12 -52 -21 -63 -32 -36
-3 8 -14 15 -25 15 -15 0 -20 -8 -23 -32 -4 -38 -38 -55 -38 -19 0 16 -6 21
-24 21 -26 0 -86 30 -86 43 0 4 -15 7 -32 7 -18 0 -44 9 -58 20 l-25 20 23 0
c15 0 26 7 29 20 3 11 11 20 18 20 7 0 15 14 17 30 3 23 1 30 -11 30 -20 0
-91 -94 -91 -121 0 -24 -2 -24 -42 1 -40 24 -118 28 -118 5 0 -8 -4 -15 -8
-15 -16 0 -52 -37 -52 -54 0 -9 -8 -16 -19 -16 -22 0 -51 -49 -51 -85 0 -13 7
-28 15 -35 13 -10 13 -15 3 -21 -7 -4 -16 -3 -20 4 -4 6 -10 8 -14 4 -10 -10
26 -36 50 -37 12 0 16 5 12 15 -3 9 0 15 9 15 8 0 15 7 15 15 0 8 -4 15 -9 15
-31 0 -19 87 13 92 15 2 20 9 19 26 -2 17 2 22 22 22 17 0 29 8 37 25 9 19 14
22 24 14 8 -6 21 -8 30 -5 10 4 18 0 21 -13 6 -24 55 -32 88 -15 22 11 25 11
25 -5 0 -26 26 -44 54 -39 20 4 27 -1 39 -32 8 -20 12 -50 10 -67 -5 -28 -2
-30 33 -36 21 -4 43 -2 50 4 9 8 16 5 26 -10 7 -12 19 -21 26 -21 7 0 24 -7
37 -16 20 -13 25 -25 25 -60 0 -24 -4 -44 -10 -44 -5 0 -10 -7 -10 -15 0 -25
-26 -17 -51 15 -14 17 -34 30 -46 30 -12 0 -25 5 -28 10 -3 6 -15 10 -26 10
-10 0 -19 -4 -19 -10 0 -24 -29 -8 -32 17 -2 18 -10 29 -21 31 -23 5 -67 -35
-67 -59 0 -10 -5 -21 -11 -24 -6 -4 -8 -13 -5 -20 5 -14 -22 -25 -61 -25 -12
0 -23 -5 -25 -12 -7 -20 -36 -1 -53 36 -9 19 -27 38 -38 42 -12 4 -25 12 -29
18 -6 8 -11 6 -18 -4 -7 -10 -12 -12 -18 -4 -4 6 -31 14 -59 17 -48 5 -53 4
-53 -13 0 -11 6 -20 14 -20 7 0 27 -7 42 -15 35 -18 61 -19 67 -2 3 7 6 5 6
-5 1 -10 5 -18 10 -18 5 0 9 -21 8 -46 0 -29 5 -49 14 -54 21 -14 3 -23 -19
-11 -12 6 -39 11 -62 11 -37 0 -40 2 -35 22 6 28 -18 61 -41 56 -25 -5 -29
-28 -6 -35 14 -3 21 -15 25 -41 7 -61 12 -58 -121 -79 -34 -5 -66 -43 -43 -51
6 -2 11 -15 11 -28 0 -27 12 -29 127 -24 59 2 63 1 63 -20 0 -17 -4 -20 -20
-15 -17 5 -20 2 -20 -24 0 -16 5 -33 10 -36 6 -4 8 -10 5 -15 -8 -13 -110 -68
-126 -68 -49 3 -56 -2 -63 -42 -6 -38 -26 -57 -26 -25 0 8 -4 15 -10 15 -5 0
-10 -13 -10 -30 0 -25 4 -29 23 -27 18 2 22 -2 19 -25 -2 -16 3 -30 13 -35 15
-9 15 -11 1 -22 -22 -19 -20 -41 4 -41 11 0 20 5 20 11 0 6 9 9 20 6 13 -3 21
1 25 14 12 35 95 17 95 -20 0 -14 2 -14 36 4 33 17 44 18 63 6 12 -8 12 -12
-2 -25 -17 -18 -107 -23 -107 -6 0 17 -47 11 -54 -6 -4 -9 -5 -19 -3 -21 10
-9 109 -15 151 -9 36 6 46 11 46 27 0 25 26 25 67 -1 18 -11 39 -17 46 -14 8
3 20 -2 27 -11 14 -17 40 -20 40 -5 0 6 9 10 19 10 11 0 26 6 34 14 22 22 74
17 81 -7 3 -13 10 -18 20 -14 10 4 16 1 16 -8 0 -13 23 -15 135 -15 83 0 135
4 135 10 0 14 27 12 34 -2 5 -10 7 -10 12 0 4 9 9 10 19 2 9 -8 15 -8 20 0 8
13 152 13 157 0 2 -5 45 -11 96 -12 72 -2 95 1 102 12 8 13 10 13 10 0 0 -13
1 -13 10 0 5 8 10 10 10 4 0 -22 220 -21 220 1 0 5 5 3 10 -5 7 -11 10 -11 10
-2 0 9 14 12 48 10 26 -2 49 -6 52 -9 3 -3 36 -9 74 -12 61 -4 69 -3 73 14 6
22 33 26 33 4 0 -8 5 -15 10 -15 6 0 10 5 10 12 0 9 3 9 12 0 15 -15 74 -16
83 -2 9 14 132 13 137 -1 4 -13 198 -15 207 -2 8 11 35 10 43 -2 4 -5 28 -9
53 -8 25 1 43 -3 40 -8 -9 -13 39 -11 53 3 14 14 173 14 201 -1 24 -13 98 -14
105 -2 4 5 2 20 -3 34 -8 21 -16 24 -62 26 -29 0 -56 6 -60 12 -4 6 -22 10
-41 7 -20 -2 -40 2 -47 9 -6 7 -8 13 -3 13 99 0 236 10 241 17 11 17 41 23 41
8 0 -25 52 -68 83 -68 19 0 34 -9 48 -29 20 -28 21 -28 130 -28 102 0 109 1
109 20 0 12 -7 20 -16 20 -20 0 -44 24 -44 44 0 23 -46 31 -74 13 -19 -13 -32
-14 -57 -7 -19 6 -40 8 -49 5 -29 -9 -68 43 -47 64 15 15 27 14 27 -3 0 -7 10
-16 23 -20 36 -10 112 -7 124 5 7 7 17 8 30 1 10 -6 31 -8 47 -5 24 5 27 3 22
-13 -5 -15 2 -21 31 -31 27 -8 41 -8 51 -1 20 17 80 -20 84 -51 4 -30 28 -41
28 -13 0 18 3 19 35 9 24 -7 39 -7 46 0 13 13 1 41 -21 48 -11 3 -22 15 -25
25 -4 12 -19 22 -41 26 -19 3 -37 10 -40 15 -3 5 -18 9 -35 9 -16 0 -29 5 -29
10 0 6 -7 10 -15 10 -8 0 -15 5 -15 10 0 6 4 10 9 10 5 0 16 3 25 6 10 4 16 1
16 -9 0 -11 13 -14 58 -12 31 1 64 4 72 7 8 4 27 9 43 12 23 5 27 3 27 -14 0
-17 4 -20 21 -15 15 5 22 2 26 -14 4 -14 13 -21 29 -21 14 0 27 -7 30 -15 4
-8 15 -15 25 -15 15 0 19 7 19 35 0 30 3 35 23 35 29 0 51 15 43 29 -5 7 3 9
23 5 23 -5 32 -2 37 10 4 12 19 16 55 16 53 0 64 16 34 46 -8 9 -15 25 -15 36
0 11 -8 27 -17 34 -17 13 -17 15 0 25 20 12 23 35 5 43 -7 3 -3 3 8 1 16 -4
23 0 28 17 12 45 7 58 -19 58 -22 0 -25 4 -25 34 0 45 -18 53 -131 57 -66 2
-89 -7 -89 -38 0 -19 -4 -24 -16 -19 -9 3 -18 6 -20 6 -2 0 -4 9 -4 20 0 11
-6 20 -14 20 -7 0 -19 7 -26 15 -7 8 -21 15 -31 15 -13 0 -19 7 -19 24 0 14
-4 28 -10 31 -20 12 -10 27 16 22 14 -2 31 2 40 10 12 13 14 13 14 0 0 -12 7
-14 27 -8 15 4 28 12 30 18 6 16 -62 54 -81 47 -14 -5 -15 -2 -6 21 5 14 10
36 10 48 0 19 6 22 37 22 49 0 59 29 13 38 -24 5 -30 12 -30 32 0 16 -6 25
-15 25 -8 0 -15 -4 -15 -10 0 -5 -7 -10 -15 -10 -9 0 -18 -6 -21 -14 -4 -11
-12 -13 -29 -6 -14 5 -26 5 -33 -2 -5 -5 -17 -8 -25 -6 -13 2 -14 6 -2 21 7
10 23 20 35 22 43 8 64 18 79 37 13 16 23 18 59 12 35 -5 48 -14 65 -40 12
-19 28 -34 35 -34 6 0 12 -4 12 -10 0 -5 18 -10 41 -10 53 0 76 -22 61 -56 -7
-13 -16 -24 -22 -24 -5 0 -10 -7 -10 -15 0 -9 9 -15 25 -15 16 0 25 6 25 15 0
25 27 17 34 -10 4 -14 13 -25 21 -25 18 0 32 23 17 28 -6 2 -9 9 -6 16 3 8 -2
20 -10 29 -9 9 -16 22 -16 31 0 8 -8 17 -18 20 -10 3 -22 21 -27 39 -12 39
-53 51 -62 18 -3 -12 -9 -21 -13 -21 -12 0 -35 31 -35 49 0 10 -10 17 -25 19
-26 3 -53 13 -103 38 -47 23 -70 19 -66 -12 1 -11 -25 -24 -49 -24 -12 0 -34
-7 -47 -16 -20 -13 -27 -14 -42 -2 -18 13 -24 50 -10 64 12 12 8 45 -8 60 -24
25 -17 34 28 36 65 3 92 -1 95 -12 2 -5 12 -10 22 -10 10 0 22 -5 25 -11 4 -6
13 -8 21 -5 7 3 16 0 20 -6 4 -5 21 -8 39 -5 21 3 41 0 54 -10 20 -13 26 -13
66 6 55 26 54 26 48 1 -4 -14 0 -20 10 -20 22 0 32 20 16 31 -7 4 -10 12 -5
16 5 4 11 2 13 -4 7 -19 53 -16 53 2 0 8 -4 15 -9 15 -5 0 -11 10 -13 23 -4
26 -48 38 -48 13 0 -26 -70 -22 -77 4 -3 11 -12 20 -19 20 -8 0 -14 6 -14 14
0 25 -32 28 -56 5 -25 -24 -54 -20 -54 7 0 10 -7 26 -17 36 -15 17 -15 18 0
18 10 0 17 4 17 9 0 10 90 24 160 25 41 1 45 3 48 28 4 32 2 32 -32 17 -19 -9
-29 -8 -47 5 l-23 16 26 0 c14 0 40 3 57 6 24 5 31 3 31 -10 0 -9 7 -16 15
-16 8 0 15 8 15 19 0 14 -10 20 -42 24 -24 3 -44 11 -46 16 -2 6 -15 11 -28
11 -20 0 -24 5 -24 30 0 31 -23 43 -34 18 -3 -9 -8 -8 -16 5 -6 9 -22 17 -35
17 -18 0 -25 5 -25 19 0 22 -30 35 -57 27 -10 -3 -35 -8 -55 -10 -29 -4 -38
-2 -38 9 0 19 -5 19 -35 -1 -23 -15 -25 -15 -31 0 -4 9 -18 16 -34 16 -27 0
-28 1 -24 50 3 45 0 52 -23 49 -3 0 -10 6 -15 15 -5 9 -16 16 -23 16 -10 0
-15 11 -15 33 0 28 -5 34 -39 48 -26 11 -43 13 -49 7 -6 -6 -12 -6 -16 1 -4 6
-1 11 8 11 8 0 17 6 19 13 4 9 8 9 15 -2 8 -11 12 -9 22 10 l13 23 17 -22 c20
-24 46 -29 52 -10 3 9 9 8 22 -5 10 -9 26 -17 37 -17 10 0 19 -4 19 -10 0 -5
13 -10 30 -10 21 0 28 -4 24 -14 -15 -38 36 -72 64 -44 9 9 15 10 20 2 4 -6
17 -14 30 -18 12 -4 22 -12 22 -17 0 -5 6 -9 14 -9 8 0 16 -6 19 -14 5 -11 60
-46 74 -46 12 0 -1 30 -22 48 -35 31 -31 39 18 35 66 -5 127 6 127 23 0 8 -4
14 -8 14 -5 0 -16 16 -26 36 l-17 36 25 -6 c16 -4 30 0 40 10 18 17 21 44 6
44 -5 0 -10 -4 -10 -9 0 -15 -50 13 -56 31 -3 10 -21 20 -47 25 -34 7 -45 14
-56 41 -12 27 -20 32 -48 32 -31 0 -33 -2 -33 -35 l0 -35 -55 0 c-30 0 -55 -4
-55 -9 0 -5 -14 -11 -30 -14 -22 -5 -30 -12 -30 -27 0 -28 -29 -38 -46 -15
-10 14 -22 16 -49 12 -30 -5 -35 -3 -35 14 0 10 -5 19 -11 19 -6 0 -17 7 -26
15 -12 12 -12 19 -3 30 8 10 8 19 1 34 -17 31 -13 41 18 41 23 0 32 7 43 30
11 26 17 30 40 24 21 -4 33 0 51 20 14 14 30 26 36 26 21 0 24 30 5 45 -18 13
-18 14 6 34 l25 20 -26 1 c-34 0 -51 -21 -47 -56 3 -30 -19 -47 -75 -59 -20
-4 -32 -16 -42 -39 -11 -27 -22 -35 -50 -40 -30 -6 -36 -11 -34 -29 1 -12 -1
-30 -5 -39 -4 -9 -5 -21 -2 -26 3 -6 -1 -12 -9 -16 -8 -3 -15 -17 -15 -31 0
-14 -4 -25 -9 -25 -5 0 -14 -14 -21 -31 -16 -37 -5 -48 50 -50 19 -1 27 -3 18
-6 -10 -2 -21 -15 -24 -28 -3 -13 -14 -25 -25 -28 -12 -3 -19 -14 -19 -30 0
-33 20 -46 27 -18 3 12 13 21 24 21 13 0 19 7 19 21 0 15 4 19 16 15 9 -3 18
-6 20 -6 2 0 4 -7 4 -15 0 -9 -12 -18 -30 -21 -17 -4 -30 -13 -30 -21 0 -11 8
-14 30 -11 26 4 30 1 30 -19 0 -13 10 -37 21 -52 22 -30 19 -51 -7 -51 -31 0
-13 -73 21 -80 41 -9 48 -30 11 -30 -27 0 -36 -10 -51 -55 -7 -20 -18 -31 -32
-33 -19 -3 -23 -10 -24 -40 0 -29 -2 -33 -8 -17 -5 11 -24 35 -42 53 -18 18
-38 47 -44 65 -10 31 -11 32 -72 32 -34 1 -74 7 -90 14 -78 36 -93 45 -93 53
0 4 -7 8 -15 8 -8 0 -15 4 -15 10 0 5 -18 13 -41 16 -22 4 -46 12 -53 19 -7 7
-35 24 -64 39 -28 14 -53 30 -57 36 -3 5 -17 10 -30 10 -13 0 -26 4 -30 9 -3
5 -41 27 -85 48 -54 26 -80 44 -80 56 0 9 -7 17 -15 17 -9 0 -12 -6 -8 -15 4
-12 -4 -10 -33 7 -22 12 -40 26 -42 30 -2 4 -9 8 -17 8 -7 0 -18 7 -25 15 -7
8 -21 15 -32 15 -11 0 -34 10 -51 23 -62 44 -118 73 -159 82 -16 3 -28 12 -28
20 0 7 -10 17 -22 21 -13 3 -35 15 -50 26 -15 10 -43 24 -62 31 -31 11 -54 27
-128 90 -40 33 -65 22 -95 -44 -12 -25 -33 -53 -47 -63 -18 -12 -26 -25 -26
-47 0 -16 -6 -32 -14 -35 -8 -3 -17 -17 -21 -31 -3 -14 -11 -31 -18 -39 -27
-31 -34 -41 -51 -83 -9 -24 -24 -54 -32 -65 -8 -11 -14 -28 -14 -38 0 -9 -8
-23 -18 -30 -10 -7 -22 -26 -26 -43 -4 -16 -11 -32 -15 -35 -4 -3 -17 -25 -29
-49 l-21 -45 5 100 c3 54 12 138 20 187 8 48 14 120 14 160 0 72 0 73 40 110
23 20 46 37 53 37 7 0 18 14 26 30 16 37 4 55 -39 65 -15 3 -30 14 -32 23 -3
9 -16 22 -29 28 -137 65 -155 76 -144 94 3 5 17 10 30 10 15 0 26 7 30 19 3
11 15 23 26 26 12 4 19 15 19 31 0 22 -4 24 -52 24 l-53 0 3 50 c4 52 -9 65
-36 38z m-82 -328 c0 -16 -33 -50 -49 -50 -11 0 -9 6 7 20 12 12 22 25 22 30
0 6 5 10 10 10 6 0 10 -4 10 -10z m94 -35 c19 -14 19 -15 -6 -15 -14 0 -31 -7
-38 -15 -16 -19 -30 -19 -30 -1 0 12 36 45 50 45 3 0 14 -6 24 -14z m106 -30
c11 -13 11 -44 1 -163 -7 -81 -16 -149 -21 -152 -4 -3 -10 -48 -13 -100 -14
-233 -20 -306 -28 -315 -4 -6 -20 -12 -35 -13 -34 -3 -41 -9 -26 -24 7 -7 12
-20 12 -29 0 -10 9 -21 20 -24 16 -5 20 -15 20 -56 0 -49 4 -54 34 -43 12 5
16 21 16 70 0 35 4 64 9 64 6 0 11 21 13 48 3 45 4 47 32 45 21 -2 36 5 53 25
12 15 23 31 23 35 0 21 53 117 64 117 7 0 18 18 25 40 8 28 16 38 26 33 9 -3
28 -1 43 5 15 6 47 13 72 16 l45 6 -40 -19 -40 -19 30 -4 30 -5 -32 -2 c-18 0
-33 4 -33 10 0 13 -42 8 -47 -6 -6 -19 34 -35 62 -25 15 6 44 10 65 10 21 0
41 4 44 9 3 5 34 12 69 15 34 4 69 11 76 15 17 11 67 -43 76 -82 4 -15 11 -27
16 -27 5 0 9 -7 9 -15 0 -8 -4 -15 -10 -15 -5 0 -10 -4 -10 -10 0 -5 6 -10 14
-10 9 0 17 -15 21 -39 l6 -39 59 -6 c32 -4 70 -4 85 0 25 6 26 5 16 -14 -17
-31 -14 -47 4 -32 9 7 19 10 23 6 4 -4 8 -98 9 -207 1 -138 5 -205 13 -215 10
-11 10 -17 0 -29 -9 -10 -9 -15 -1 -15 6 0 11 -13 11 -30 0 -16 -4 -30 -9 -30
-6 0 -11 -21 -13 -47 l-3 -48 -65 -6 c-36 -4 -98 -10 -138 -14 -69 -8 -72 -7
-65 11 7 18 6 18 -20 1 -14 -9 -32 -17 -38 -17 -17 0 -7 397 11 429 8 15 8 26
2 30 -5 3 -12 53 -15 111 -4 58 -6 106 -7 108 0 2 -9 1 -19 -3 -11 -3 -22 -1
-26 5 -3 5 -42 10 -87 10 -91 0 -133 -18 -159 -67 -8 -15 -20 -32 -26 -36 -7
-4 -13 -24 -13 -43 0 -19 -4 -42 -9 -52 -5 -9 -14 -43 -19 -75 -6 -31 -18 -64
-27 -73 -18 -19 -20 -44 -2 -44 9 0 12 -18 9 -72 -4 -65 -8 -76 -33 -101 -24
-22 -26 -27 -11 -27 10 0 23 5 30 12 19 19 14 -1 -8 -32 -21 -29 -18 -42 8
-33 14 5 15 3 5 -8 -7 -7 -13 -23 -13 -35 0 -17 -7 -23 -32 -27 -18 -2 -39 0
-45 5 -7 6 -21 7 -30 3 -10 -4 -38 -9 -63 -12 l-45 -4 0 60 c0 35 5 65 13 72
19 20 14 29 -14 29 l-27 0 5 -83 c4 -77 3 -85 -16 -93 -12 -5 -21 -18 -21 -29
0 -18 -7 -20 -65 -21 -36 -1 -55 0 -42 3 17 3 22 10 20 26 -2 17 -11 23 -40
25 -40 3 -45 14 -39 80 1 12 -3 22 -9 22 -5 0 -10 -22 -10 -50 0 -43 -3 -50
-19 -50 -16 0 -20 9 -23 57 -2 32 0 63 4 69 5 7 8 29 7 50 -1 22 1 50 5 64 3
14 1 28 -7 33 -9 7 -9 10 1 14 6 2 12 20 12 39 0 20 -5 34 -12 34 -10 0 -10 2
0 9 16 10 29 140 34 323 2 71 6 128 11 128 4 0 7 9 7 19 0 11 7 27 16 36 9 8
18 32 19 53 8 96 19 179 26 202 l7 25 1 -27 c2 -53 21 -40 21 15 0 48 -3 55
-25 65 -32 15 -85 16 -85 2 0 -5 -4 -10 -8 -10 -5 0 -5 21 -1 48 4 26 8 53 8
60 1 6 6 12 11 12 6 0 10 -20 10 -45 0 -43 1 -45 20 -35 14 7 20 21 20 44 0
19 7 39 15 46 8 7 15 21 15 31 0 10 5 21 10 24 6 4 10 -19 11 -62 0 -47 3 -62
9 -48 7 17 9 17 9 3 2 -33 33 -58 73 -58 21 0 38 4 38 9 0 5 10 11 23 13 20 3
22 9 25 70 2 37 -2 77 -8 88 -8 16 -8 20 3 20 8 0 20 -7 27 -15z m352 -110
c-4 -26 -22 -45 -22 -25 0 12 18 50 24 50 2 0 1 -11 -2 -25z m-38 -90 c-10
-19 -24 -35 -30 -35 -7 0 -18 -16 -24 -35 -6 -19 -17 -38 -24 -42 -7 -5 -16
-17 -19 -27 -4 -10 -10 -16 -13 -13 -7 7 24 67 35 67 5 0 12 14 16 31 6 28 65
102 74 93 2 -2 -4 -20 -15 -39z m321 -3 c8 -7 15 -22 15 -32 0 -11 3 -20 8
-21 4 0 20 -2 36 -3 16 -1 31 -7 34 -14 2 -7 12 -12 22 -12 23 0 35 -16 18
-23 -8 -3 -7 -6 4 -6 9 -1 22 -9 28 -18 8 -13 13 -14 16 -5 9 20 21 14 34 -17
8 -20 20 -31 38 -33 14 -2 28 -10 30 -18 5 -13 3 -13 -11 -1 -15 12 -17 11
-17 -3 0 -18 25 -22 35 -5 4 5 -1 26 -10 45 -9 20 -15 38 -12 40 3 3 11 -8 18
-24 7 -16 25 -38 41 -48 15 -11 31 -27 34 -38 4 -13 9 -15 17 -7 7 7 14 7 23
0 8 -7 14 -6 19 2 4 6 1 15 -6 20 -8 5 -9 9 -3 9 7 0 20 -12 29 -27 10 -16 24
-32 32 -36 7 -4 13 -15 13 -22 0 -8 7 -15 15 -15 8 0 15 5 15 10 0 6 5 10 10
10 6 0 10 -4 10 -10 0 -5 14 -23 30 -40 17 -17 30 -25 30 -17 0 7 -5 18 -12
25 -6 6 -9 14 -6 18 3 3 14 -8 24 -25 10 -16 21 -28 26 -25 4 3 8 -4 8 -15 0
-22 12 -25 45 -12 11 5 25 4 33 -1 14 -12 16 -32 2 -23 -5 3 -10 -1 -10 -9 0
-24 25 -19 40 8 l12 24 24 -25 c13 -14 24 -31 24 -37 0 -18 41 -40 50 -27 4 8
17 -3 35 -29 15 -22 32 -40 38 -40 5 0 4 7 -3 15 -7 9 -11 18 -8 20 3 3 11 -1
18 -10 11 -14 14 -13 26 2 12 16 13 16 14 2 0 -9 6 -22 14 -28 8 -7 12 -21 9
-31 -4 -14 0 -20 12 -20 11 0 15 5 12 14 -4 11 -1 13 10 9 12 -5 14 -2 9 8 -4
8 2 4 13 -9 14 -16 27 -22 41 -17 12 4 20 2 20 -5 0 -7 8 -10 20 -7 11 3 20 1
20 -4 0 -5 -5 -9 -10 -9 -6 0 -5 -8 2 -20 11 -17 10 -22 -2 -30 -8 -5 -11 -12
-7 -17 5 -4 11 -2 15 4 9 14 52 6 52 -9 0 -5 5 -6 10 -3 15 10 12 -5 -6 -22
-14 -14 -16 -14 -30 3 -14 17 -15 17 -10 2 7 -22 -10 -24 -18 -2 -4 10 -13 13
-25 9 -22 -7 -44 16 -35 39 5 12 0 16 -20 16 -14 0 -26 -6 -26 -12 0 -7 -8 -3
-18 9 -9 11 -26 23 -37 25 -10 2 -22 14 -26 28 -4 14 -7 19 -8 12 -1 -7 -5
-10 -11 -7 -5 3 -10 1 -10 -6 0 -23 -23 8 -24 32 0 12 -7 24 -15 27 -10 3 -12
0 -8 -11 5 -14 3 -15 -14 -4 -13 8 -22 9 -27 2 -11 -16 -32 -16 -32 0 0 15
-16 20 -52 17 -10 -1 -18 5 -18 13 0 8 4 15 10 15 5 0 7 7 4 15 -4 8 -10 15
-15 15 -5 0 -9 -7 -9 -15 0 -8 -4 -15 -10 -15 -5 0 -10 -7 -10 -15 0 -25 -15
-17 -32 18 -14 30 -19 32 -72 34 -41 2 -61 8 -76 23 -12 12 -25 18 -31 14 -13
-8 -49 24 -49 43 0 10 -6 12 -19 8 -11 -3 -22 -2 -25 4 -3 5 -25 12 -47 16
-29 5 -37 10 -28 16 11 7 11 11 1 21 -8 8 -15 9 -20 3 -9 -13 -102 -15 -102
-3 0 5 5 6 10 3 11 -7 13 6 4 28 -5 13 -8 13 -24 -3 -9 -9 -19 -23 -22 -30 -2
-7 -19 11 -38 40 -18 29 -48 68 -66 87 -19 19 -36 44 -39 54 -4 10 -11 19 -16
19 -5 0 -9 11 -9 25 0 15 -6 25 -14 25 -25 0 -76 107 -59 124 3 3 14 -2 24
-11 10 -10 25 -24 34 -31z m55 -26 c0 -5 -7 -1 -15 10 -8 10 -14 24 -14 29 0
6 6 1 14 -9 8 -11 15 -24 15 -30z m-307 -73 c-7 -2 -19 -2 -25 0 -7 3 -2 5 12
5 14 0 19 -2 13 -5z m612 -93 c3 -5 1 -10 -4 -10 -6 0 -11 5 -11 10 0 6 2 10
4 10 3 0 8 -4 11 -10z m-652 -7 c-7 -2 -21 -2 -30 0 -10 3 -4 5 12 5 17 0 24
-2 18 -5z m175 0 c-10 -2 -26 -2 -35 0 -10 3 -2 5 17 5 19 0 27 -2 18 -5z
m1532 -93 c0 -5 -9 -10 -21 -10 -11 0 -17 5 -14 10 3 6 13 10 21 10 8 0 14 -4
14 -10z m-2389 -85 l-9 -40 -1 46 c-1 25 2 49 7 53 12 12 13 -16 3 -59z m2409
25 c0 -11 5 -21 10 -21 6 -1 13 -3 18 -4 4 -2 17 -6 30 -10 27 -9 28 -16 1
-38 -15 -13 -29 -16 -50 -12 -31 7 -56 39 -39 50 5 3 10 17 10 31 0 13 5 24
10 24 6 0 10 -9 10 -20z m175 -69 c4 -14 19 -20 60 -26 30 -3 55 -11 55 -16 0
-5 12 -9 28 -9 15 0 38 -3 50 -7 l24 -6 -28 -24 c-18 -15 -37 -23 -51 -20 -13
2 -28 -2 -34 -9 -8 -10 -16 -9 -41 4 -23 13 -32 14 -35 5 -6 -17 -28 -16 -43
2 -14 17 -50 20 -50 5 0 -5 -7 -10 -15 -10 -8 0 -15 5 -15 10 0 6 -7 10 -15
10 -8 0 -15 -4 -15 -10 0 -5 -9 -10 -20 -10 -13 0 -20 -7 -20 -19 0 -10 9 -21
20 -24 19 -5 30 -47 12 -47 -5 0 -14 -10 -21 -23 -10 -19 -20 -22 -63 -22 -47
0 -53 2 -59 25 -11 39 -10 50 4 45 20 -8 35 8 39 40 2 21 9 31 23 33 38 6 83
32 87 50 3 11 18 21 36 25 17 4 37 16 44 27 16 25 35 26 43 1z m-2558 -23 c-3
-7 -5 -2 -5 12 0 14 2 19 5 13 2 -7 2 -19 0 -25z m-40 -105 c-3 -10 -5 -4 -5
12 0 17 2 24 5 18 2 -7 2 -21 0 -30z m823 -14 c0 -6 -4 -7 -10 -4 -5 3 -10 11
-10 16 0 6 5 7 10 4 6 -3 10 -11 10 -16z m-803 -71 c-2 -13 -4 -3 -4 22 0 25
2 35 4 23 2 -13 2 -33 0 -45z m2638 54 c12 -8 13 -32 2 -49 -4 -6 -4 -19 -1
-28 5 -13 2 -16 -12 -13 -15 3 -18 10 -16 36 2 18 -2 40 -8 48 -10 11 -9 14 6
14 11 0 24 -4 29 -8z m-2667 -197 c-2 -140 -6 -185 -15 -185 -18 0 -16 -25 2
-44 13 -13 13 -16 1 -23 -7 -4 -16 -17 -19 -28 -8 -26 1 334 9 408 4 31 11 57
16 57 5 0 8 -79 6 -185z m1556 154 c28 -13 34 -38 36 -154 1 -44 2 -127 3
-185 l2 -105 -50 0 c-48 0 -50 1 -52 30 -3 57 -4 150 -1 278 2 70 -1 127 -5
127 -5 0 -5 5 -2 10 8 13 38 13 69 -1z m-203 -87 c-7 -2 -18 1 -23 6 -8 8 -4
9 13 5 13 -4 18 -8 10 -11z m542 11 c-7 -2 -19 -2 -25 0 -7 3 -2 5 12 5 14 0
19 -2 13 -5z m-583 -33 c0 -5 9 -10 19 -10 11 0 23 -4 26 -10 3 -5 19 -10 36
-10 16 0 29 -5 29 -11 0 -7 -9 -9 -22 -5 -13 4 -41 10 -63 13 -39 6 -58 19
-49 35 7 11 24 10 24 -2z m1170 -19 c0 -5 -9 -11 -21 -14 -16 -4 -18 -3 -8 9
13 16 29 19 29 5z m370 -1 c0 -5 -4 -10 -10 -10 -5 0 -10 5 -10 10 0 6 5 10
10 10 6 0 10 -4 10 -10z m-1460 -76 c0 -2 -7 -4 -15 -4 -8 0 -15 4 -15 10 0 5
7 7 15 4 8 -4 15 -8 15 -10z m410 -4 c0 -5 11 -10 24 -10 14 0 27 -4 30 -9 3
-4 31 -11 63 -14 32 -4 80 -18 107 -32 27 -14 60 -25 73 -25 13 0 23 -4 23 -9
0 -5 10 -11 23 -13 20 -3 22 -9 25 -66 l3 -62 -58 6 c-32 3 -71 13 -87 20 -16
8 -39 14 -51 14 -11 0 -26 5 -32 11 -6 6 -41 14 -77 16 -84 7 -96 21 -96 115
0 54 3 68 15 68 8 0 15 -4 15 -10z m137 4 c-3 -3 -12 -4 -19 -1 -8 3 -5 6 6 6
11 1 17 -2 13 -5z m-1082 -33 c6 -20 -3 -71 -12 -71 -7 0 -43 41 -43 48 0 8
34 41 42 41 4 1 9 -8 13 -18z m509 4 c6 -16 -3 -19 -28 -9 -22 8 -20 24 3 24
10 0 21 -7 25 -15z m-4 -65 c0 -5 -4 -10 -10 -10 -5 0 -10 5 -10 10 0 6 5 10
10 10 6 0 10 -4 10 -10z m-542 -36 c-10 -10 -28 6 -28 24 0 15 1 15 17 -1 9
-9 14 -19 11 -23z m-28 -34 c0 -5 -5 -10 -11 -10 -5 0 -7 5 -4 10 3 6 8 10 11
10 2 0 4 -4 4 -10z m44 -66 c12 -4 16 -20 16 -55 0 -27 -2 -49 -5 -49 -16 0
-45 44 -45 68 0 39 7 46 34 36z m1028 -26 c-5 -22 6 -22 32 -3 11 8 24 15 30
15 6 0 0 -7 -12 -16 -17 -12 -20 -19 -12 -29 8 -9 4 -16 -13 -28 -18 -12 -56
-15 -166 -16 -79 -1 -146 -2 -149 -3 -28 -3 -19 7 32 37 33 18 64 32 68 29 4
-3 15 2 24 11 11 10 26 14 43 11 14 -3 32 -2 40 3 7 5 30 8 51 7 30 -1 36 -4
32 -18z m-1202 -28 c0 -5 -5 -10 -11 -10 -5 0 -7 5 -4 10 3 6 8 10 11 10 2 0
4 -4 4 -10z m1770 -37 c0 -16 -21 -16 -55 -1 -29 13 -33 35 -7 40 20 5 61 -22
62 -39z m196 11 c-1 -18 -7 -24 -23 -24 -26 0 -26 0 -13 34 12 32 38 25 36
-10z m-1831 -14 c3 -5 -1 -10 -9 -10 -9 0 -16 5 -16 10 0 6 4 10 9 10 6 0 13
-4 16 -10z m1142 4 c-3 -3 -12 -4 -19 -1 -8 3 -5 6 6 6 11 1 17 -2 13 -5z
m-2237 -80 c0 -14 1 -14 16 0 21 21 22 21 18 -13 -3 -25 -1 -28 19 -24 21 4
22 4 3 -11 -23 -19 -36 -20 -36 -5 0 6 -7 8 -17 5 -9 -4 -20 -1 -24 6 -6 9
-12 8 -25 -3 -11 -9 -15 -9 -10 -1 4 7 2 12 -4 12 -7 0 -2 11 11 25 27 28 49
32 49 9z m1948 9 c-15 -2 -42 -2 -60 0 -18 2 -6 4 27 4 33 0 48 -2 33 -4z
m571 3 c-2 -2 -22 -6 -44 -9 -22 -3 -54 -11 -70 -17 -19 -7 -127 -13 -290 -15
l-260 -4 185 10 c101 6 187 14 190 19 3 5 35 10 70 12 146 7 224 8 219 4z
m-2665 -45 c4 -5 -3 -7 -14 -4 -23 6 -26 13 -6 13 8 0 17 -4 20 -9z m-54 -15
c0 -2 -7 -7 -16 -10 -8 -3 -12 -2 -9 4 6 10 25 14 25 6z m2630 -46 c0 -49 -1
-50 -30 -50 -19 0 -52 14 -83 35 -76 51 -143 48 -204 -9 -13 -12 -23 -28 -23
-36 -1 -12 -3 -12 -11 2 -5 9 -7 35 -3 57 l6 40 87 4 c47 1 125 4 174 5 l87 2
0 -50z m145 19 c50 -12 92 -27 93 -31 2 -4 10 -8 17 -8 8 0 17 -9 20 -20 3
-11 11 -20 16 -20 5 0 9 -4 9 -10 0 -18 -18 -11 -25 10 -8 25 -52 37 -77 21
-21 -13 -38 -2 -51 32 -10 27 -54 21 -87 -13 -16 -16 -32 -30 -35 -30 -8 0 -6
86 2 94 4 3 12 5 17 3 6 -2 52 -15 101 -28z m-3002 14 c-7 -2 -19 -2 -25 0 -7
3 -2 5 12 5 14 0 19 -2 13 -5z m267 3 c0 -3 -4 -8 -10 -11 -5 -3 -10 -1 -10 4
0 6 5 11 10 11 6 0 10 -2 10 -4z m1850 -2 c0 -4 -9 -22 -21 -40 -12 -21 -18
-41 -14 -54 7 -22 31 -27 38 -7 3 6 6 2 6 -9 1 -12 -8 -33 -19 -47 -11 -14
-20 -28 -20 -32 0 -4 9 -5 20 -2 17 4 20 0 20 -23 0 -16 -5 -32 -11 -35 -6 -4
-10 -19 -9 -33 4 -60 1 -72 -22 -72 -24 0 -68 36 -68 57 0 7 -2 13 -4 13 -2 0
-11 3 -20 6 -11 4 -19 -2 -25 -17 -9 -22 -10 -20 -10 14 -1 32 -4 37 -25 37
-23 0 -24 2 -22 68 4 99 5 102 19 102 7 0 26 16 41 35 16 19 37 35 48 35 19 0
19 -1 -2 -31 -12 -16 -19 -33 -16 -36 6 -6 76 52 84 70 4 9 32 10 32 1z m345
-15 c8 -25 -2 -69 -15 -69 -6 0 -10 6 -10 13 -1 25 -51 50 -104 50 -44 1 -56
-4 -88 -33 -21 -19 -38 -40 -38 -48 0 -7 -6 -12 -12 -10 -7 3 -14 25 -16 50
l-3 46 68 7 c37 3 77 7 88 9 11 2 43 4 72 5 44 1 53 -2 58 -20z m-505 7 c0 -3
-4 -8 -10 -11 -5 -3 -10 -1 -10 4 0 6 5 11 10 11 6 0 10 -2 10 -4z m-1813 -22
c-3 -3 -12 -4 -19 -1 -8 3 -5 6 6 6 11 1 17 -2 13 -5z m1710 -26 c-3 -7 -5 -2
-5 12 0 14 2 19 5 13 2 -7 2 -19 0 -25z m78 1 c-10 -15 -25 -10 -19 6 4 8 10
12 15 9 5 -3 7 -10 4 -15z m-1064 -21 c4 -6 12 -7 18 -3 17 10 8 -60 -10 -76
-17 -16 -48 -18 -70 -4 -19 13 -32 45 -17 45 6 0 8 11 4 31 l-6 31 38 -7 c20
-4 40 -11 43 -17z m-661 -19 c0 -11 -4 -17 -10 -14 -5 3 -10 13 -10 21 0 8 5
14 10 14 6 0 10 -9 10 -21z m264 15 c23 -9 20 -34 -4 -34 -11 0 -20 2 -20 4 0
2 -3 11 -6 20 -6 17 4 20 30 10z m96 -14 c0 -15 -7 -20 -25 -20 -18 0 -25 5
-25 20 0 15 7 20 25 20 18 0 25 -5 25 -20z m160 9 c0 -8 6 -7 17 2 15 13 16 8
10 -61 -9 -105 -17 -140 -34 -140 -7 0 -16 -8 -20 -17 -10 -30 -24 -42 -39
-36 -8 3 -14 11 -14 19 0 8 -4 14 -10 14 -5 0 -10 7 -10 15 0 8 5 15 10 15 6
0 10 14 10 30 0 17 -5 30 -11 30 -6 0 -3 7 5 16 9 8 16 19 16 24 0 5 7 16 17
25 14 14 14 18 2 26 -10 6 -10 9 -1 9 6 0 12 9 12 20 0 13 7 20 20 20 11 0 20
-5 20 -11z m2700 -48 c-9 -9 -33 -25 -54 -35 -25 -13 -39 -29 -43 -46 -3 -19
-11 -26 -26 -26 -22 1 -31 -28 -16 -49 4 -5 -2 -21 -13 -35 -19 -24 -20 -24
-34 -6 -8 12 -20 17 -34 13 -14 -4 -19 -1 -16 6 3 7 9 20 12 30 4 9 16 17 30
17 29 0 32 6 36 63 2 33 7 46 16 42 7 -2 37 3 67 13 42 13 53 21 49 34 -3 10
2 18 13 20 25 5 33 -22 13 -41z m-2370 -59 c0 -70 -1 -73 -22 -70 -21 3 -23 8
-21 71 1 69 18 111 34 85 5 -7 9 -46 9 -86z m1773 51 c-7 -2 -19 -2 -25 0 -7
3 -2 5 12 5 14 0 19 -2 13 -5z m-1833 -34 c0 -19 -21 -49 -35 -49 -8 0 -69
-43 -73 -52 -2 -5 -17 -8 -33 -8 -24 0 -29 -4 -29 -25 0 -39 -28 -31 -36 11
-8 45 2 55 98 104 86 43 108 47 108 19z m1424 -28 c-8 -32 -15 -40 -21 -23 -3
6 -10 12 -18 12 -7 0 -17 6 -24 13 -16 20 4 34 39 29 27 -4 29 -7 24 -31z
m246 20 c0 -27 -50 -38 -67 -15 -16 22 -2 34 40 34 20 0 27 -5 27 -19z m80 0
c0 -28 -21 -37 -36 -16 -16 22 -10 35 17 35 12 0 19 -7 19 -19z m110 9 c0 -5
-16 -10 -35 -10 -19 0 -35 5 -35 10 0 6 16 10 35 10 19 0 35 -4 35 -10z m150
-10 c0 -5 -3 -16 -6 -24 -5 -13 -9 -14 -20 -5 -22 18 -18 48 6 42 11 -3 20 -9
20 -13z m-2583 -17 c-3 -3 -11 -2 -17 2 -9 6 -9 10 1 16 14 8 27 -7 16 -18z
m1896 13 c8 -19 -16 -38 -37 -30 -9 3 -16 15 -16 25 0 23 45 27 53 5z m187 -2
c0 -9 -7 -14 -17 -12 -25 5 -28 28 -4 28 12 0 21 -6 21 -16z m-2300 -4 c0 -5
-4 -10 -10 -10 -5 0 -10 5 -10 10 0 6 5 10 10 10 6 0 10 -4 10 -10z m140 0 c0
-5 -2 -10 -4 -10 -3 0 -8 5 -11 10 -3 6 -1 10 4 10 6 0 11 -4 11 -10z m1511
-17 c-8 -15 -10 -15 -11 -2 0 17 10 32 18 25 2 -3 -1 -13 -7 -23z m339 -4 c0
-10 -4 -19 -10 -19 -5 0 -10 12 -10 26 0 14 4 23 10 19 6 -3 10 -15 10 -26z
m866 16 c4 -8 3 -22 0 -31 -5 -14 -7 -14 -22 1 -16 16 -13 45 6 45 6 0 13 -7
16 -15z m-488 -23 c13 -19 12 -22 -3 -28 -19 -8 -35 10 -35 39 0 23 19 18 38
-11z m875 14 c12 4 17 1 17 -10 0 -20 39 -21 46 -1 9 22 21 18 28 -10 5 -18
13 -25 30 -25 19 0 23 -5 23 -30 0 -16 -4 -30 -8 -30 -4 0 -10 -9 -14 -19 -7
-22 -45 -17 -45 5 0 8 -8 17 -17 20 -39 13 -63 28 -63 41 0 7 -9 13 -20 13
-11 0 -20 -6 -20 -14 0 -8 -7 -17 -16 -20 -8 -3 -12 -11 -9 -17 7 -11 -22 -49
-37 -49 -15 0 -9 68 7 74 8 3 15 12 15 21 0 8 7 15 15 15 9 0 20 12 26 27 7
19 13 23 18 15 4 -7 15 -10 24 -6z m-3146 -14 c7 -4 9 -13 4 -21 -10 -16 -31
-6 -31 15 0 16 9 18 27 6z m2831 -15 c2 -12 -3 -17 -17 -17 -15 0 -21 6 -21
21 0 25 33 22 38 -4z m-2998 -19 c0 -5 11 -8 25 -8 17 0 25 -6 25 -17 0 -10 3
-28 6 -40 5 -18 1 -23 -22 -29 -16 -4 -35 -13 -42 -21 -7 -7 -24 -13 -37 -13
-13 0 -27 -4 -30 -10 -8 -12 -45 -13 -45 -1 0 5 10 12 23 16 l22 7 -25 8 c-22
8 -21 9 10 7 33 -2 35 0 32 28 -4 41 -18 52 -42 37 -26 -16 -60 -15 -60 1 0 8
-4 7 -10 -3 -8 -12 -13 -13 -30 -2 -11 6 -33 12 -50 12 -16 0 -30 3 -30 8 0 4
22 7 50 7 37 0 53 5 64 20 9 11 16 15 16 9 0 -17 87 -16 94 1 4 11 10 11 30 2
14 -7 26 -15 26 -19z m2641 -1 c-6 -6 -11 -20 -11 -31 -1 -19 -1 -20 -11 -3
-8 13 -6 21 5 33 9 8 16 21 17 27 0 8 3 7 6 -1 3 -8 0 -19 -6 -25z m83 27 c20
-8 20 -20 1 -28 -21 -8 -45 3 -45 20 0 15 18 18 44 8z m96 -8 c0 -28 -12 -46
-31 -46 -21 0 -22 4 -13 38 7 24 44 31 44 8z m-2416 -2 c18 -7 22 -39 6 -49
-5 -3 -10 3 -10 14 0 12 -4 21 -10 21 -5 0 -10 5 -10 10 0 12 3 12 24 4z
m1807 -9 c0 -6 -10 -12 -23 -13 -19 -4 -20 -2 -9 12 15 17 33 18 32 1z m149 0
c25 -14 24 -14 -17 -15 -41 0 -57 13 -30 23 18 8 20 8 47 -8z m-2140 1 c0 -3
-4 -8 -10 -11 -5 -3 -10 -1 -10 4 0 6 5 11 10 11 6 0 10 -2 10 -4z m90 -6 c0
-5 -9 -10 -20 -10 -11 0 -20 5 -20 10 0 6 9 10 20 10 11 0 20 -4 20 -10z
m2250 0 c0 -5 -9 -10 -19 -10 -11 0 -23 5 -26 10 -4 6 5 10 19 10 14 0 26 -4
26 -10z m337 -6 c-3 -3 -12 -4 -19 -1 -8 3 -5 6 6 6 11 1 17 -2 13 -5z m-1167
-26 c0 -13 -5 -30 -10 -38 -7 -11 -10 -5 -10 23 0 20 5 37 10 37 6 0 10 -10
10 -22z m768 0 c3 -14 -3 -18 -27 -18 -25 0 -31 4 -31 21 0 16 5 20 27 17 17
-2 29 -10 31 -20z m-2323 -10 c6 -4 2 -8 -7 -8 -10 0 -18 7 -18 17 0 9 3 12 8
7 4 -5 12 -12 17 -16z m91 -5 c-3 -8 -6 -17 -6 -19 0 -2 -4 -4 -10 -4 -5 0
-10 11 -10 25 0 18 4 23 16 18 8 -3 13 -12 10 -20z m2048 -16 c-3 -9 -12 -17
-20 -17 -15 0 -18 18 -8 45 6 14 9 15 21 3 7 -8 11 -22 7 -31z m540 37 c23 -9
22 -74 -1 -74 -26 0 -52 20 -35 27 6 2 12 16 12 29 0 26 1 27 24 18z m-780
-20 c7 -18 8 -54 2 -54 -2 0 -11 -3 -20 -6 -13 -5 -16 1 -16 28 0 47 21 66 34
32z m-1674 -20 c0 -8 -4 -14 -10 -14 -5 0 -10 2 -10 4 0 2 -3 12 -6 20 -5 12
-2 15 10 10 9 -3 16 -12 16 -20z m1990 1 c0 -25 -14 -34 -24 -16 -8 12 3 41
15 41 5 0 9 -11 9 -25z m184 -2 c-26 -41 -40 -53 -61 -53 -16 1 -15 3 5 19 12
11 22 26 22 33 0 20 10 28 33 28 19 0 19 -1 1 -27z m-2364 -3 c0 -5 -5 -10
-11 -10 -5 0 -7 5 -4 10 3 6 8 10 11 10 2 0 4 -4 4 -10z m735 -36 c14 4 29 0
39 -9 18 -19 24 -19 43 1 13 12 27 14 62 9 25 -4 50 -11 56 -16 14 -14 58 -11
84 7 17 12 35 15 72 10 27 -4 55 -4 61 0 7 4 33 9 59 10 44 2 50 -1 78 -33 17
-20 31 -31 31 -25 0 7 5 12 10 12 7 0 7 -6 0 -19 -5 -11 -10 -31 -10 -46 0
-22 -3 -24 -19 -15 -11 5 -29 10 -40 10 -11 0 -28 11 -36 24 -13 20 -22 23
-58 20 -23 -2 -47 -11 -53 -19 -15 -20 -27 -19 -42 5 -18 29 -56 25 -80 -7
l-21 -28 -36 19 c-24 13 -39 16 -43 10 -11 -17 -92 -33 -118 -24 -12 5 -24 19
-26 32 -3 20 -10 23 -50 26 -47 3 -48 3 -48 -27 l0 -30 -89 4 c-102 4 -131 21
-131 75 0 28 2 30 28 23 15 -4 38 -7 52 -7 14 0 28 -4 31 -9 7 -10 89 14 89
27 0 4 7 6 15 2 8 -3 25 -2 37 3 17 6 24 5 26 -6 3 -10 11 -13 27 -9z m255 16
c0 -5 -2 -10 -4 -10 -3 0 -8 5 -11 10 -3 6 -1 10 4 10 6 0 11 -4 11 -10z
m1285 -10 c-3 -5 -15 -10 -26 -10 -10 0 -19 5 -19 10 0 6 12 10 26 10 14 0 23
-4 19 -10z m325 -20 c0 -6 -9 -10 -20 -10 -13 0 -20 7 -20 20 0 18 3 19 20 10
11 -6 20 -15 20 -20z m-2330 9 c0 -7 10 -9 25 -5 18 5 25 2 25 -9 0 -11 7 -13
29 -9 16 3 32 1 35 -5 11 -17 -5 -83 -19 -78 -6 3 -18 1 -25 -3 -8 -5 -18 -3
-26 4 -8 9 -40 12 -103 10 -86 -3 -91 -3 -91 17 0 18 -4 20 -30 14 -33 -7 -37
1 -17 29 9 13 29 19 68 20 30 1 61 5 69 8 48 20 60 21 60 7z m1146 -4 c5 -12
10 -13 20 -4 13 10 39 5 111 -22 13 -5 25 -4 28 1 10 17 107 12 127 -7 11 -9
18 -11 18 -5 0 7 7 12 15 12 8 0 15 -7 15 -15 0 -16 23 -18 55 -6 37 15 44 1
16 -30 -25 -27 -32 -29 -70 -23 -26 4 -48 15 -60 30 -18 23 -41 32 -41 17 0
-5 -7 -17 -15 -27 -13 -17 -16 -18 -38 -4 -20 14 -26 14 -42 2 -30 -22 -80
-17 -113 11 -17 14 -33 25 -37 25 -4 0 -18 9 -31 19 -23 18 -24 20 -7 30 26
15 43 13 49 -4z m-1834 -12 c-22 -21 -58 -43 -71 -43 -5 0 -7 8 -4 19 5 21 37
39 71 40 21 1 21 0 4 -16z m354 -2 c59 2 90 -7 97 -25 4 -10 0 -12 -14 -9 -14
4 -22 0 -26 -15 -5 -23 -62 -34 -140 -29 -49 4 -62 12 -45 29 7 7 12 22 12 34
0 24 35 37 56 22 6 -4 33 -7 60 -7z m2057 -1 c3 -11 1 -20 -4 -20 -5 0 -9 9
-9 20 0 11 2 20 4 20 2 0 6 -9 9 -20z m117 -10 c0 -5 -4 -10 -10 -10 -5 0 -10
5 -10 10 0 6 5 10 10 10 6 0 10 -4 10 -10z m-128 -36 c35 -1 69 -2 76 -3 20
-2 14 -21 -7 -21 -11 0 -27 -7 -36 -16 -11 -11 -24 -14 -43 -10 -15 4 -40 8
-55 10 -42 4 -52 20 -31 45 13 15 20 17 26 8 4 -7 33 -13 70 -13z m-2217 -5
c11 -16 1 -19 -13 -3 -7 8 -8 14 -3 14 5 0 13 -5 16 -11z m352 -71 c-3 -8 -6
-5 -6 6 -1 11 2 17 5 13 3 -3 4 -12 1 -19z"/>
<path d="M1180 2210 c0 -5 5 -10 10 -10 6 0 10 5 10 10 0 6 -4 10 -10 10 -5 0
-10 -4 -10 -10z"/>
<path d="M1210 2010 c0 -5 7 -10 15 -10 8 0 15 5 15 10 0 6 -7 10 -15 10 -8 0
-15 -4 -15 -10z"/>
<path d="M1166 1943 c-9 -58 -7 -123 4 -123 6 0 10 33 10 80 0 44 -2 80 -4 80
-2 0 -6 -17 -10 -37z"/>
<path d="M1150 1790 c0 -13 5 -20 13 -17 6 2 12 10 12 17 0 7 -6 15 -12 18 -8
2 -13 -5 -13 -18z"/>
<path d="M1147 1753 c-4 -3 -7 -56 -6 -117 0 -132 14 -116 25 28 6 89 2 110
-19 89z"/>
<path d="M1131 1474 c0 -11 3 -14 6 -6 3 7 2 16 -1 19 -3 4 -6 -2 -5 -13z"/>
<path d="M1350 1445 c0 -8 -4 -15 -10 -15 -15 0 -12 -87 3 -93 7 -4 6 -6 -5
-6 -24 -1 -30 -116 -6 -137 11 -10 18 -12 23 -5 6 10 -1 15 -17 12 -5 0 -8 4
-8 9 0 6 6 10 14 10 21 0 31 52 12 66 -20 14 -21 35 -2 28 15 -6 26 35 26 102
0 32 -4 44 -15 44 -8 0 -15 -7 -15 -15z"/>
<path d="M1970 1414 c0 -14 3 -14 15 -4 8 7 15 14 15 16 0 2 -7 4 -15 4 -8 0
-15 -7 -15 -16z"/>
<path d="M1112 1230 c0 -14 2 -19 5 -12 2 6 2 18 0 25 -3 6 -5 1 -5 -13z"/>
<path d="M1090 1180 c0 -5 7 -10 15 -10 8 0 15 5 15 10 0 6 -7 10 -15 10 -8 0
-15 -4 -15 -10z"/>
<path d="M1090 1135 c0 -14 5 -25 10 -25 6 0 10 11 10 25 0 14 -4 25 -10 25
-5 0 -10 -11 -10 -25z"/>
<path d="M2000 2191 c0 -5 5 -13 10 -16 6 -3 10 -2 10 4 0 5 -4 13 -10 16 -5
3 -10 2 -10 -4z"/>
<path d="M2295 1880 c-3 -5 -1 -10 4 -10 6 0 11 5 11 10 0 6 -2 10 -4 10 -3 0
-8 -4 -11 -10z"/>
<path d="M2520 1780 c0 -5 5 -10 10 -10 6 0 10 5 10 10 0 6 -4 10 -10 10 -5 0
-10 -4 -10 -10z"/>
<path d="M3080 1581 c0 -12 5 -21 10 -21 6 0 10 6 10 14 0 8 -4 18 -10 21 -5
3 -10 -3 -10 -14z"/>
<path d="M3650 1679 c0 -5 5 -7 10 -4 6 3 10 8 10 11 0 2 -4 4 -10 4 -5 0 -10
-5 -10 -11z"/>
<path d="M3824 2417 c7 -30 -40 -69 -73 -60 -15 4 -21 1 -21 -10 0 -8 6 -18
13 -20 9 -4 9 -8 -2 -15 -9 -6 11 -9 60 -9 46 0 74 -4 77 -12 2 -6 16 -11 30
-11 15 0 39 -11 54 -25 26 -24 30 -25 68 -13 22 7 40 18 40 25 0 6 -30 42 -66
78 -49 49 -71 64 -85 60 -15 -5 -17 -3 -12 11 5 14 2 16 -21 12 -14 -3 -29 -1
-32 3 -3 5 -12 9 -21 9 -11 0 -14 -6 -9 -23z"/>
<path d="M3692 2328 c6 -18 28 -21 28 -4 0 9 -7 16 -16 16 -9 0 -14 -5 -12
-12z"/>
<path d="M4082 2325 c-11 -13 -9 -15 8 -15 11 0 20 7 20 15 0 19 -11 19 -28 0z"/>
<path d="M3990 2145 c0 -8 5 -15 10 -15 6 0 10 7 10 15 0 8 -4 15 -10 15 -5 0
-10 -7 -10 -15z"/>
<path d="M4030 2131 c0 -12 5 -21 10 -21 6 0 10 6 10 14 0 8 -4 18 -10 21 -5
3 -10 -3 -10 -14z"/>
<path d="M3582 1958 c3 -7 13 -15 22 -16 12 -3 17 1 14 10 -3 7 -13 15 -22 16
-12 3 -17 -1 -14 -10z"/>
<path d="M3616 1921 c-4 -7 -5 -15 -2 -18 9 -9 19 4 14 18 -4 11 -6 11 -12 0z"/>
<path d="M3675 1920 c3 -5 13 -10 21 -10 8 0 14 5 14 10 0 6 -9 10 -21 10 -11
0 -17 -4 -14 -10z"/>
<path d="M3740 1920 c0 -5 5 -10 11 -10 6 0 8 -9 4 -21 -6 -19 -5 -20 15 -9
l22 12 -21 19 c-23 21 -31 24 -31 9z"/>
<path d="M3260 1875 c0 -8 5 -15 10 -15 6 0 10 7 10 15 0 8 -4 15 -10 15 -5 0
-10 -7 -10 -15z"/>
<path d="M3798 1873 c7 -3 16 -2 19 1 4 3 -2 6 -13 5 -11 0 -14 -3 -6 -6z"/>
<path d="M3930 1836 c0 -9 5 -16 10 -16 6 0 10 4 10 9 0 6 -4 13 -10 16 -5 3
-10 -1 -10 -9z"/>
<path d="M830 1760 c0 -5 5 -10 10 -10 6 0 10 5 10 10 0 6 -4 10 -10 10 -5 0
-10 -4 -10 -10z"/>
<path d="M4026 1664 c-10 -27 -7 -44 9 -44 10 0 15 10 15 30 0 32 -14 40 -24
14z"/>
<path d="M737 1612 c6 -4 11 -16 10 -27 -2 -15 7 -21 41 -28 51 -10 64 -3 36
19 -18 15 -18 15 9 9 24 -5 28 -3 25 12 -3 15 -15 18 -68 20 -35 1 -59 -1 -53
-5z"/>
<path d="M550 1564 c0 -9 7 -14 17 -12 25 5 28 28 4 28 -12 0 -21 -6 -21 -16z"/>
<path d="M3572 1378 c-19 -19 -14 -30 10 -26 13 2 24 11 26 21 4 20 -18 23
-36 5z"/>
<path d="M240 1291 c0 -5 -8 -17 -17 -26 -13 -14 -14 -21 -5 -36 7 -11 8 -20
2 -24 -6 -3 -10 -15 -10 -26 0 -11 -7 -19 -16 -19 -21 0 -50 -30 -38 -38 6 -4
11 -20 12 -36 2 -27 16 -45 34 -46 4 0 6 17 4 37 -1 27 -7 39 -19 41 -33 7
-17 22 23 22 33 0 40 4 40 19 0 10 7 21 15 25 19 7 19 35 0 42 -21 8 -15 54 7
54 10 0 18 5 18 10 0 6 -11 10 -25 10 -14 0 -25 -4 -25 -9z"/>
<path d="M615 1231 c-6 -11 9 -23 19 -14 9 9 7 23 -3 23 -6 0 -12 -4 -16 -9z"/>
<path d="M535 1220 c-11 -17 5 -32 21 -19 7 6 11 15 8 20 -7 12 -21 11 -29 -1z"/>
<path d="M4097 1104 c-14 -14 -8 -64 8 -64 16 0 17 10 6 48 -3 13 -9 20 -14
16z"/>
<path d="M3942 1078 c2 -13 8 -23 13 -23 6 0 11 10 13 23 2 15 -2 22 -13 22
-11 0 -15 -7 -13 -22z"/>
<path d="M3887 1064 c-16 -16 -6 -34 19 -34 19 0 25 5 22 17 -3 19 -29 29 -41
17z"/>
<path d="M3850 996 c0 -8 -7 -16 -15 -20 -22 -8 -19 -36 4 -36 10 0 21 9 24
20 3 11 12 20 21 20 9 0 16 7 16 15 0 9 -9 15 -25 15 -15 0 -25 -6 -25 -14z"/>
<path d="M4096 905 c4 -8 10 -15 15 -15 5 0 9 7 9 15 0 8 -7 15 -15 15 -9 0
-12 -6 -9 -15z"/>
<path d="M190 764 c0 -9 5 -14 12 -12 18 6 21 28 4 28 -9 0 -16 -7 -16 -16z"/>
<path d="M3877 443 c-17 -16 -4 -24 35 -21 55 4 64 28 11 28 -22 0 -43 -3 -46
-7z"/>
<path d="M4000 414 c0 -8 5 -12 10 -9 6 3 10 10 10 16 0 5 -4 9 -10 9 -5 0
-10 -7 -10 -16z"/>
<path d="M3080 390 c0 -5 -10 -9 -22 -7 -17 1 -24 -4 -26 -20 -3 -22 0 -23 68
-23 45 0 69 4 65 10 -3 6 -15 10 -26 10 -10 0 -24 9 -31 20 -14 21 -28 27 -28
10z"/>
</g>
</svg>
